<?xml version="1.0" encoding="iso-8859-1"?>
<!-- Generator: Adobe Illustrator 19.0.0, SVG Export Plug-In . SVG Version: 6.00 Build 0)  -->
<svg xmlns="http://www.w3.org/2000/svg" xmlns:xlink="http://www.w3.org/1999/xlink" version="1.1" id="Capa_1" x="0px" y="0px" viewBox="0 0 512 512" style="enable-background:new 0 0 512 512;" xml:space="preserve" width="512px" height="512px">
<g>
	<g>
		<path d="M253.732,385.966h-15.627c-4.142,0-7.5,3.357-7.5,7.5s3.358,7.5,7.5,7.5h15.627c4.142,0,7.5-3.357,7.5-7.5    S257.874,385.966,253.732,385.966z" fill="#242424"/>
	</g>
</g>
<g>
	<g>
		<path d="M203.21,385.966H74.443c-4.142,0-7.5,3.357-7.5,7.5s3.358,7.5,7.5,7.5H203.21c4.142,0,7.5-3.357,7.5-7.5    S207.352,385.966,203.21,385.966z" fill="#242424"/>
	</g>
</g>
<g>
	<g>
		<path d="M503.543,316.534c-3.26-5.032-7.388-9.522-12.25-13.203l-74.241-56.196c-0.002-0.002-0.005-0.003-0.007-0.005    l-15.723-11.902c-23.05-17.448-51.665-27.058-80.575-27.058h-38.512v-15.048c0-7.137-5.806-12.942-12.941-12.942h-53.586    l-61.183-55.255l59.918-51.103h50.921c6.795,0,12.333-5.429,12.538-12.175h51.102c4.142,0,7.5-3.357,7.5-7.5    c0-4.143-3.358-7.5-7.5-7.5h-51.102c-0.204-6.746-5.743-12.176-12.538-12.176H158.705c-6.795,0-12.334,5.429-12.538,12.176H95.065    c-4.142,0-7.5,3.357-7.5,7.5c0,4.143,3.358,7.5,7.5,7.5h51.102c0.205,6.746,5.743,12.175,12.538,12.175h32.622l-49.199,41.96    c-2.612,2.229-4.138,5.476-4.187,8.908c-0.048,3.433,1.385,6.721,3.933,9.022l51.452,46.467h-38.552    c-7.136,0-12.941,5.806-12.941,12.942v15.049H19.909c-10.792,0-19.573,8.78-19.573,19.573v199.983    c0,10.793,8.781,19.573,19.573,19.573H26.5c1.14,5.631,3.54,10.809,6.889,15.231H7.5c-4.143,0-7.5,3.357-7.5,7.5    s3.357,7.5,7.5,7.5h484.613c4.143,0,7.5-3.357,7.5-7.5s-3.357-7.5-7.5-7.5h-47.875c3.349-4.422,5.748-9.6,6.889-15.231h27.765    c18.256,0,33.108-14.853,33.108-33.108v-64.077v-5.139C512,334.813,508.976,324.921,503.543,316.534z M161.148,58.823    L161.148,58.823v-9.351H262.92v9.351H161.148z M410.006,260.615L410.006,260.615l72.234,54.678    c0.563,0.426,1.112,0.869,1.647,1.325c0.136,0.116,0.264,0.239,0.399,0.357c0.389,0.341,0.776,0.685,1.149,1.042    c0.181,0.173,0.353,0.353,0.529,0.529c0.314,0.313,0.629,0.626,0.931,0.949c0.191,0.204,0.373,0.415,0.559,0.623    c0.275,0.308,0.55,0.616,0.814,0.932c0.188,0.225,0.369,0.456,0.552,0.686c0.247,0.31,0.493,0.622,0.73,0.94    c0.18,0.242,0.355,0.488,0.529,0.734c0.225,0.317,0.446,0.635,0.661,0.959c0.169,0.255,0.334,0.513,0.497,0.772    c0.204,0.325,0.404,0.652,0.598,0.983c0.156,0.265,0.309,0.533,0.458,0.802c0.186,0.335,0.366,0.674,0.541,1.015    c0.14,0.272,0.279,0.545,0.413,0.821c0.168,0.347,0.328,0.698,0.486,1.051c0.124,0.277,0.249,0.555,0.366,0.835    c0.151,0.361,0.291,0.726,0.431,1.091c0.107,0.279,0.216,0.556,0.316,0.837c0.135,0.381,0.258,0.766,0.381,1.151    c0.087,0.271,0.178,0.541,0.258,0.814c0.122,0.414,0.228,0.832,0.336,1.25c0.065,0.251,0.136,0.5,0.195,0.753    c0.115,0.488,0.211,0.981,0.306,1.474c0.036,0.187,0.08,0.371,0.113,0.559c0.121,0.684,0.223,1.371,0.305,2.062    c0.015,0.123,0.021,0.247,0.034,0.37c0.058,0.534,0.108,1.069,0.143,1.606H346.119c-2.894,0-5.249-2.354-5.249-5.248v-71.504    c0-2.894,2.354-5.248,5.249-5.248H410.006z M156.833,195.18h110.402v12.991H156.833V195.18z M63.48,462.531    c-9.906,0-18.347-6.372-21.454-15.23h42.907C81.827,456.159,73.386,462.531,63.48,462.531z M93.571,462.531    c3.349-4.422,5.748-9.6,6.889-15.231h28.04c1.14,5.631,3.54,10.809,6.889,15.231H93.571z M165.48,462.531    c-9.906,0-18.347-6.372-21.454-15.23h42.907C183.827,456.159,175.386,462.531,165.48,462.531z M195.571,462.531    c3.349-4.422,5.748-9.6,6.889-15.231h72.707c1.14,5.631,3.54,10.809,6.889,15.231H195.571z M312.147,462.531    c-9.906,0-18.347-6.372-21.454-15.23H333.6C330.494,456.159,322.053,462.531,312.147,462.531z M342.238,462.531    c3.349-4.422,5.748-9.6,6.889-15.231h28.04c1.14,5.631,3.54,10.809,6.889,15.231H342.238z M414.147,462.531    c-9.906,0-18.347-6.372-21.454-15.23H435.6C432.494,456.159,424.053,462.531,414.147,462.531z M497,414.193    c0,9.985-8.123,18.108-18.108,18.108H19.909c-2.521,0-4.573-2.052-4.573-4.573v-70.112h259.987    c10.85,0,19.677-8.827,19.677-19.677v-72.647c0-10.85-8.827-19.677-19.677-19.677H15.336v-17.871c0-2.521,2.052-4.573,4.573-4.573    h300.838c24.767,0,49.277,7.966,69.351,22.444h-43.979c-11.165,0-20.249,9.083-20.249,20.248v71.504    c0,11.165,9.083,20.248,20.249,20.248H497V414.193z M82.333,279.356c4.142,0,7.5-3.357,7.5-7.5v-11.24H197.5v82H89.833v-35.862    c0-4.143-3.358-7.5-7.5-7.5c-4.142,0-7.5,3.357-7.5,7.5v35.862H15.387v-82h59.446v11.24    C74.833,275.997,78.191,279.356,82.333,279.356z M212.5,342.615v-82h62.823c2.579,0,4.677,2.098,4.677,4.677v72.646    c0,2.579-2.098,4.677-4.677,4.677H212.5z" fill="#242424"/>
	</g>
</g>
<g>
</g>
<g>
</g>
<g>
</g>
<g>
</g>
<g>
</g>
<g>
</g>
<g>
</g>
<g>
</g>
<g>
</g>
<g>
</g>
<g>
</g>
<g>
</g>
<g>
</g>
<g>
</g>
<g>
</g>
</svg>
